<svg xmlns="http://www.w3.org/2000/svg" height="512pt" version="1.1" viewBox="-31 0 512 512" width="512pt">
<g id="surface1">
<path d="M 75 512 L 375 512 C 399.8125 512 420 491.8125 420 467 L 420 300 L 435 300 C 443.285156 300 450 293.285156 450 285 L 450 165 C 450 140.1875 429.8125 120 405 120 L 318.378906 120 L 333.5625 109.738281 C 350.117188 98.554688 360 79.957031 360 60 C 360 26.914062 333.085938 0 300 0 C 272.945312 0 249.125 18.226562 242.074219 44.316406 L 225 107.5 L 207.925781 44.316406 C 200.875 18.226562 177.054688 0 150 0 C 116.914062 0 90 26.914062 90 60 C 90 79.957031 99.882812 98.554688 116.4375 109.738281 L 131.621094 120 L 45 120 C 20.1875 120 0 140.1875 0 165 L 0 285 C 0 293.285156 6.714844 300 15 300 L 30 300 L 30 467 C 30 491.8125 50.1875 512 75 512 Z M 60 467 L 60 300 L 180 300 L 180 482 L 75 482 C 66.730469 482 60 475.269531 60 467 Z M 210 150 C 216.683594 150 229.871094 150 240 150 L 240 482 L 210 482 Z M 390 467 C 390 475.269531 383.269531 482 375 482 L 270 482 L 270 300 L 390 300 Z M 420 165 L 420 270 L 270 270 L 270 171.214844 L 334.394531 235.605469 C 340.25 241.464844 349.75 241.464844 355.605469 235.605469 C 361.464844 229.75 361.464844 220.253906 355.605469 214.394531 L 291.214844 150 L 405 150 C 413.269531 150 420 156.730469 420 165 Z M 271.035156 52.144531 C 274.558594 39.105469 286.46875 30 300 30 C 316.542969 30 330 43.457031 330 60 C 330 69.980469 325.054688 79.28125 316.765625 84.882812 L 264.800781 120 L 252.699219 120 Z M 133.234375 84.882812 C 124.945312 79.28125 120 69.980469 120 60 C 120 43.457031 133.457031 30 150 30 C 163.53125 30 175.441406 39.105469 178.964844 52.144531 L 197.300781 120 L 185.199219 120 Z M 30 165 C 30 156.730469 36.730469 150 45 150 L 158.785156 150 L 94.394531 214.394531 C 88.535156 220.253906 88.535156 229.75 94.394531 235.605469 C 100.25 241.464844 109.746094 241.464844 115.605469 235.605469 L 180 171.214844 L 180 270 L 30 270 Z M 30 165 " style=" stroke:none;fill-rule:nonzero;fill:rgb(0%,0%,0%);fill-opacity:1;" />
</g>
</svg>