<?xml version="1.0" encoding="iso-8859-1"?>
<!-- Generator: Adobe Illustrator 19.0.0, SVG Export Plug-In . SVG Version: 6.00 Build 0)  -->
<svg xmlns="http://www.w3.org/2000/svg" xmlns:xlink="http://www.w3.org/1999/xlink" version="1.1" id="Capa_1" x="0px" y="0px" viewBox="0 0 512 512" style="enable-background:new 0 0 512 512;" xml:space="preserve" width="512px" height="512px">
<g>
	<g>
		<path d="M252.985,195.242H104.767c-4.142,0-7.5,3.358-7.5,7.5c0,4.142,3.358,7.5,7.5,7.5h148.218c4.142,0,7.5-3.358,7.5-7.5    C260.485,198.599,257.127,195.242,252.985,195.242z" fill="#FFFFFF"/>
	</g>
</g>
<g>
	<g>
		<path d="M212.79,233.929H104.767c-4.142,0-7.5,3.358-7.5,7.5c0,4.142,3.358,7.5,7.5,7.5H212.79c4.142,0,7.5-3.358,7.5-7.5    C220.29,237.286,216.932,233.929,212.79,233.929z" fill="#FFFFFF"/>
	</g>
</g>
<g>
	<g>
		<path d="M212.79,272.617H104.767c-4.142,0-7.5,3.358-7.5,7.5c0,4.142,3.358,7.5,7.5,7.5H212.79c4.142,0,7.5-3.358,7.5-7.5    C220.29,275.974,216.932,272.617,212.79,272.617z" fill="#FFFFFF"/>
	</g>
</g>
<g>
	<g>
		<path d="M212.791,372.687H104.767c-4.142,0-7.5,3.358-7.5,7.5c0,4.142,3.358,7.5,7.5,7.5H212.79c4.142,0,7.5-3.358,7.5-7.5    C220.29,376.044,216.933,372.687,212.791,372.687z" fill="#FFFFFF"/>
	</g>
</g>
<g>
	<g>
		<path d="M508.775,84.041c-1.227-0.866-2.773-1.345-4.275-1.345H313.034L276.57,46.231c2.128-3.852,3.343-8.275,3.343-12.978    c0-14.848-12.08-26.928-26.928-26.928c-14.848,0-26.927,12.08-26.927,26.928c0,4.703,1.215,9.126,3.343,12.978l-36.465,36.465    h-77.369c-4.142,0-7.5,3.358-7.5,7.5c0,4.142,3.358,7.5,7.5,7.5h371.586l-42.016,44.686c-0.774-0.263-378.65-0.398-378.65-0.398    l-41.64-44.288h60.72c4.142,0,7.5-3.358,7.5-7.5c0-4.142-3.358-7.5-7.5-7.5c0,0-77.99,0-78.067,0c-4.059,0-7.5,3.441-7.5,7.5    c0,0,0,407.849,0,407.977c0,2.89,1.792,5.612,4.407,6.817c0.97,0.447,2.024,0.683,3.093,0.683h367.4v0c4.142,0,7.5-3.358,7.5-7.5    c0-4.142-3.358-7.5-7.5-7.5H24.847l41.641-44.287h376.238c0.822,0,1.637-0.135,2.412-0.398l42.016,44.686H404.9    c-4.142,0-7.5,3.358-7.5,7.5c0,4.142,3.358,7.5,7.5,7.5c0,0,99.597,0,99.602,0c3.921,0,7.339-3.3,7.493-7.216    C511.998,498.362,512,90.213,512,90.197C512,87.781,510.743,85.43,508.775,84.041z M252.985,21.325    c6.577,0,11.928,5.351,11.928,11.928c0,6.577-5.351,11.927-11.928,11.927c-6.577,0-11.927-5.351-11.927-11.927    C241.058,26.677,246.409,21.325,252.985,21.325z M214.149,82.695l25.858-25.858c3.852,2.128,8.275,3.343,12.978,3.343    s9.126-1.215,12.978-3.343l25.858,25.858H214.149z M55.746,435.914L15,479.247V109.122l40.746,43.334V435.914z M441.255,431.292    l-0.2,0.094H70.746V156.984h370.17l0.339,0.173V431.292z M497,479.247l-40.745-43.334V152.572v-0.117L497,109.122V479.247z" fill="#FFFFFF"/>
	</g>
</g>
<g>
	<g>
		<path d="M425.474,396.926l-31.878-96.547c10.239-4.437,16.56-15.209,14.926-26.77c-0.45-3.18,0.573-6.327,2.806-8.635    c9.556-9.878,9.556-25.354,0-35.233c-2.232-2.308-3.255-5.455-2.805-8.635c1.924-13.609-7.172-26.129-20.71-28.504    c-3.163-0.555-5.84-2.5-7.346-5.337c-4.407-8.306-12.987-13.465-22.394-13.465c-3.876,0-7.616,0.867-11.115,2.578    c-2.811,1.374-6.268,1.374-9.079,0c-3.499-1.71-7.239-2.578-11.115-2.578c-9.406,0-17.987,5.16-22.394,13.465    c-1.505,2.837-4.183,4.782-7.346,5.337c-13.537,2.375-22.634,14.896-20.709,28.504c0.45,3.179-0.573,6.327-2.806,8.635    c-9.556,9.879-9.556,25.355,0,35.233c2.234,2.308,3.256,5.455,2.806,8.635c-1.635,11.561,4.687,22.333,14.926,26.77    c0,0-31.808,96.335-31.878,96.547c-1.962,5.942,4.108,11.642,9.912,9.313l26.063-10.448c0,0,14.694,23.875,14.717,23.913    c3.286,5.339,11.55,4.353,13.509-1.58l18.854-57.103c0,0,18.81,56.969,18.854,57.103c1.957,5.927,10.239,6.893,13.509,1.58    l14.717-23.913c0,0,26.007,10.425,26.063,10.448C421.356,408.562,427.425,402.837,425.474,396.926z M314.377,398.109    c0,0-9.574-15.556-9.577-15.56c-1.886-3.065-5.84-4.369-9.178-3.03l-16.96,6.799l25.914-78.485c0.113,0.205,0.24,0.399,0.358,0.6    c1.686,2.864,3.89,5.413,6.578,7.382c4.431,3.247,9.75,5.103,15.253,5.102c3.876,0,7.616-0.867,11.114-2.578    c0.986-0.482,2.057-0.786,3.143-0.929L314.377,398.109z M331.464,304.782c-0.057,0.027-0.116,0.051-0.173,0.078    c-4.95,2.421-11.089,0.422-13.67-4.442c-3.642-6.861-10.354-11.739-18.004-13.081c-5.523-0.969-9.234-6.077-8.449-11.629    c1.102-7.793-1.404-15.508-6.877-21.165c-3.899-4.027-3.899-10.341,0-14.372c5.473-5.657,7.979-13.372,6.877-21.165    c-0.785-5.552,2.926-10.66,8.449-11.629c7.752-1.359,14.314-6.127,18.003-13.081c2.574-4.852,8.75-6.847,13.672-4.442    c6.889,3.367,15.362,3.368,22.254,0c4.851-2.371,11.059-0.481,13.67,4.441c3.689,6.953,10.251,11.721,18.004,13.081    c5.523,0.969,9.234,6.077,8.449,11.629c-1.102,7.794,1.404,15.508,6.877,21.165c3.899,4.03,3.899,10.344,0,14.374    c-5.473,5.657-7.979,13.371-6.877,21.165c0.785,5.552-2.926,10.661-8.449,11.629c-6.087,1.068-11.432,4.243-15.237,8.92    c-0.046,0.057-0.094,0.113-0.139,0.17c-1.348,1.678-2.217,3.634-3.499,5.344c-3.786,5.054-9.264,4.453-14.442,2.366    C345.338,301.493,337.85,301.72,331.464,304.782z M389.215,379.518c-3.388-1.359-7.264-0.08-9.178,3.03l-9.577,15.56    l-20.143-61.008l5.381-16.296c0.078,0.007,0.157,0.004,0.235,0.011c5.785,0.489,11.652-1.059,16.453-4.326    c3.256-2.216,5.971-5.211,7.875-8.658l25.914,78.484L389.215,379.518z" fill="#FFFFFF"/>
	</g>
</g>
<g>
</g>
<g>
</g>
<g>
</g>
<g>
</g>
<g>
</g>
<g>
</g>
<g>
</g>
<g>
</g>
<g>
</g>
<g>
</g>
<g>
</g>
<g>
</g>
<g>
</g>
<g>
</g>
<g>
</g>
</svg>
